<svg width="87" height="14" viewBox="0 0 87 14" fill="none" xmlns="http://www.w3.org/2000/svg">
<rect width="34.8772" height="2.94737" fill="black"/>
<rect y="5.40353" width="34.8772" height="2.94737" fill="black"/>
<rect width="8.10526" height="2.94737" transform="matrix(-1 0 0 1 69.1053 5.40353)" fill="black"/>
<rect y="10.807" width="34.8772" height="2.94737" fill="black"/>
<path d="M24.3158 6.87719C24.3158 10.6754 21.2368 13.7544 17.4386 13.7544C13.6404 13.7544 10.5614 10.6754 10.5614 6.87719C10.5614 3.07902 13.6404 0 17.4386 0C21.2368 0 24.3158 3.07902 24.3158 6.87719Z" fill="white"/>
<path fill-rule="evenodd" clip-rule="evenodd" d="M17.4386 10.807C19.609 10.807 21.3684 9.04758 21.3684 6.87719C21.3684 4.70681 19.609 2.94737 17.4386 2.94737C15.2682 2.94737 13.5088 4.70681 13.5088 6.87719C13.5088 9.04758 15.2682 10.807 17.4386 10.807ZM17.4386 13.7544C21.2368 13.7544 24.3158 10.6754 24.3158 6.87719C24.3158 3.07902 21.2368 0 17.4386 0C13.6404 0 10.5614 3.07902 10.5614 6.87719C10.5614 10.6754 13.6404 13.7544 17.4386 13.7544Z" fill="black"/>
<path fill-rule="evenodd" clip-rule="evenodd" d="M79.4386 10.807C81.609 10.807 83.3684 9.04758 83.3684 6.87719C83.3684 4.70681 81.609 2.94737 79.4386 2.94737C77.2682 2.94737 75.5088 4.70681 75.5088 6.87719C75.5088 9.04758 77.2682 10.807 79.4386 10.807ZM79.4386 13.7544C83.2368 13.7544 86.3158 10.6754 86.3158 6.87719C86.3158 3.07902 83.2368 0 79.4386 0C75.6404 0 72.5614 3.07902 72.5614 6.87719C72.5614 10.6754 75.6404 13.7544 79.4386 13.7544Z" fill="black"/>
<rect x="44.2105" width="2.94737" height="14" fill="black"/>
<circle cx="39.5439" cy="6.87722" r="1.47368" fill="black"/>
</svg>
