<svg width="1296" height="1327" viewBox="0 0 1296 1327" fill="none" xmlns="http://www.w3.org/2000/svg">
<rect x="650.307" y="416.142" width="348.676" height="348.676" transform="rotate(45 650.307 416.142)" stroke="#1D020F" stroke-width="20"/>
<path d="M911 625.694L650.307 365L389.613 625.694" stroke="#1D020F" stroke-width="20"/>
<path d="M911 515.694L650.307 255L389.613 515.694" stroke="#1D020F" stroke-width="20"/>
<path d="M911 475.694L650.307 215L389.613 475.694" stroke="#1D020F" stroke-width="20"/>
<path d="M911 435.694L650.307 175L389.613 435.694" stroke="#1D020F" stroke-width="20"/>
<path d="M911 395.694L650.307 135L389.613 395.694" stroke="#3C041F" stroke-width="20"/>
<path d="M911 355.694L650.307 95L389.613 355.694" stroke="#3C041F" stroke-width="20"/>
<path d="M911 315.694L650.307 55L389.613 315.694" stroke="#3C041F" stroke-width="20"/>
<path d="M911 275.694L650.307 15L389.613 275.694" stroke="#3C041F" stroke-width="20"/>
<path d="M389.613 811.693L650.307 1072.39L911 811.693" stroke="#1D020F" stroke-width="20"/>
<path d="M389.613 851.693L650.307 1112.39L911 851.693" stroke="#1D020F" stroke-width="20"/>
<path d="M389.613 891.693L650.307 1152.39L911 891.693" stroke="#1D020F" stroke-width="20"/>
<path d="M389.613 931.693L650.307 1192.39L911 931.693" stroke="#3C041F" stroke-width="20"/>
<path d="M389.613 971.693L650.307 1232.39L911 971.693" stroke="#3C041F" stroke-width="20"/>
<path d="M389.613 1011.69L650.307 1272.39L911 1011.69" stroke="#3C041F" stroke-width="20"/>
<path d="M389.613 1051.69L650.307 1312.39L911 1051.69" stroke="#3C041F" stroke-width="20"/>
<path d="M389.613 695.694L650.307 956.387L911 695.694" stroke="#1D020F" stroke-width="20"/>
<path d="M470 481.693L289 662.694L470 843.694" stroke="#1D020F" stroke-width="20"/>
<path d="M824.5 474.193L1013 662.694L825 848.694" stroke="#1D020F" stroke-width="20"/>
<path d="M769 579.693L852 662.694L769 745.694" stroke="#1D020F" stroke-width="20"/>
<path d="M681 579.693L764 662.694L681 745.694" stroke="#1D020F" stroke-width="20"/>
<path d="M976 579.693L1059 662.694L976 745.694" stroke="#1D020F" stroke-width="20"/>
<path d="M1021 579.693L1104 662.694L1021 745.694" stroke="#1D020F" stroke-width="20"/>
<path d="M1066 579.693L1149 662.694L1066 745.694" stroke="#1D020F" stroke-width="20"/>
<path d="M1110 579.693L1193 662.694L1110 745.694" stroke="#3C041F" stroke-width="20"/>
<path d="M1154 579.693L1237 662.694L1154 745.694" stroke="#3C041F" stroke-width="20"/>
<path d="M1198 579.693L1281 662.694L1198 745.694" stroke="#3C041F" stroke-width="20"/>
<path d="M528 745.694L445 662.694L528 579.694" stroke="#1D020F" stroke-width="20"/>
<path d="M325 744.694L242 661.694L325 578.694" stroke="#1D020F" stroke-width="20"/>
<path d="M279 744.694L196 661.694L279 578.694" stroke="#1D020F" stroke-width="20"/>
<path d="M233 744.694L150 661.694L233 578.694" stroke="#1D020F" stroke-width="20"/>
<path d="M188 744.694L105 661.694L188 578.694" stroke="#3C041F" stroke-width="20"/>
<path d="M143 744.694L59.9999 661.694L143 578.694" stroke="#3C041F" stroke-width="20"/>
<path d="M98 744.694L14.9999 661.694L98 578.694" stroke="#3C041F" stroke-width="20"/>
<path d="M612 743.694L529 660.694L612 577.694" stroke="#1D020F" stroke-width="20"/>
<rect x="647.268" y="501.613" width="227.802" height="227.802" transform="rotate(45 647.268 501.613)" stroke="#1D020F" stroke-width="20"/>
<path d="M474 434.693L474 591.693" stroke="#1D020F" stroke-width="20"/>
<path d="M338 276L338 532" stroke="#3C041F" stroke-width="20"/>
<path d="M308 175L308 532" stroke="#3C041F" stroke-width="20"/>
<path d="M308 796L308 1167" stroke="#3C041F" stroke-width="20"/>
<path d="M278 374.693L278 531.693" stroke="#3C041F" stroke-width="20"/>
<path d="M188 474L188 532" stroke="#3C041F" stroke-width="20"/>
<path d="M188 796L188 854" stroke="#3C041F" stroke-width="20"/>
<path d="M1172 511L1172 532" stroke="#3C041F" stroke-width="20"/>
<path d="M1172 795L1172 813" stroke="#3C041F" stroke-width="20"/>
<path d="M278 795.693L278 952.693" stroke="#3C041F" stroke-width="20"/>
<path d="M248 374.693L248 531.693" stroke="#3C041F" stroke-width="20"/>
<path d="M158 474L158 532" stroke="#3C041F" stroke-width="20"/>
<path d="M158 796L158 854" stroke="#3C041F" stroke-width="20"/>
<path d="M1142 474L1142 532" stroke="#3C041F" stroke-width="20"/>
<path d="M1142 795L1142 853" stroke="#3C041F" stroke-width="20"/>
<path d="M248 795.693L248 952.693" stroke="#3C041F" stroke-width="20"/>
<path d="M218 374.693L218 531.693" stroke="#3C041F" stroke-width="20"/>
<path d="M128 511L128 532" stroke="#3C041F" stroke-width="20"/>
<path d="M128 796L128 814" stroke="#3C041F" stroke-width="20"/>
<path d="M1112 474L1112 532" stroke="#3C041F" stroke-width="20"/>
<path d="M1112 795L1112 853" stroke="#3C041F" stroke-width="20"/>
<path d="M218 795.693L218 952.693" stroke="#3C041F" stroke-width="20"/>
<path d="M338 795L338 1050" stroke="#3C041F" stroke-width="20"/>
<path d="M964 276L964 532" stroke="#3C041F" stroke-width="20"/>
<path d="M994 175L994 532" stroke="#3C041F" stroke-width="20"/>
<path d="M994 795L994 1164" stroke="#3C041F" stroke-width="20"/>
<path d="M1024 375L1024 532" stroke="#3C041F" stroke-width="20"/>
<path d="M1024 795L1024 952" stroke="#3C041F" stroke-width="20"/>
<path d="M1054 375L1054 532" stroke="#3C041F" stroke-width="20"/>
<path d="M1054 795L1054 952" stroke="#3C041F" stroke-width="20"/>
<path d="M1084 375L1084 532" stroke="#3C041F" stroke-width="20"/>
<path d="M1084 795L1084 952" stroke="#3C041F" stroke-width="20"/>
<path d="M964 795L964 1050" stroke="#3C041F" stroke-width="20"/>
<path d="M825 898.693L825 737.693" stroke="#1D020F" stroke-width="20"/>
<path d="M725 443.693L725 242.693" stroke="#1D020F" stroke-width="20"/>
<path d="M650 510.693L650 425.693" stroke="#1D020F" stroke-width="20"/>
<path d="M650 898.693L650 813.693" stroke="#1D020F" stroke-width="20"/>
<path d="M574 886L574 1072" stroke="#1D020F" stroke-width="20"/>
<path d="M524 338.693V490.693" stroke="#1D020F" stroke-width="20"/>
<path d="M775 990.693L775 338.693" stroke="#1D020F" stroke-width="20"/>
<path d="M775 493.693V341.693" stroke="#1D020F" stroke-width="20"/>
<path d="M524 338.693L524 977.693" stroke="#1D020F" stroke-width="20"/>
<path d="M574 242.693L574 443.693" stroke="#1D020F" stroke-width="20"/>
<path d="M725 1072L725 886" stroke="#1D020F" stroke-width="20"/>
<path d="M825 594.693V425.693" stroke="#1D020F" stroke-width="20"/>
<path d="M474 734.693L474 893.693" stroke="#1D020F" stroke-width="20"/>
<path d="M893 662.693H1013" stroke="#1D020F" stroke-width="20"/>
<path d="M293 662.693H413" stroke="#1D020F" stroke-width="20"/>
</svg>
